<svg xmlns="http://www.w3.org/2000/svg" viewBox="0 0 200 200">
  <!-- Background Circle -->
  <circle cx="100" cy="100" r="90" fill="#24292E"/>
  
  <!-- GitHub "Octocat" Body -->
  <path d="M100,50 C69,50 44,75 44,106 C44,131 60,152 83,159 C86,160 87,158 87,156 L87,145 C69,149 65,138 65,138 C62,131 58,129 58,129 C52,125 58,125 58,125 C64,125 68,132 68,132 C74,141 83,138 87,136 C88,132 90,129 92,128 C78,126 62,120 62,98 C62,90 65,84 69,79 C68,77 66,71 70,63 C70,63 75,61 87,69 C91,68 96,67 100,67 C104,67 109,68 113,69 C125,61 130,63 130,63 C134,71 132,77 131,79 C135,84 138,90 138,98 C138,120 122,126 108,128 C110,130 112,133 112,139 L112,156 C112,158 113,160 116,159 C139,152 156,131 156,106 C156,75 131,50 100,50 z" fill="white"/>
  
  <!-- Eyes -->
  <circle cx="82" cy="95" r="6" fill="#24292E"/>
  <circle cx="118" cy="95" r="6" fill="#24292E"/>
  
  <!-- Mouth -->
  <path d="M85,120 C85,120 92,125 100,125 C108,125 115,120 115,120" stroke="#24292E" stroke-width="3" fill="none"/>
</svg>
